<svg xmlns="http://www.w3.org/2000/svg" xmlns:xlink="http://www.w3.org/1999/xlink" width="97" height="89" viewBox="0 0 97 89">
    <defs>
        <path id="a" d="M0 0h96.254v88.674H0z"/>
    </defs>
    <g fill="none" fill-rule="evenodd" opacity=".2" transform="translate(.81)">
        <mask id="b" fill="#fff">
            <use xlink:href="#a"/>
        </mask>
        <path fill="#FEFEFE" d="M72.374 27.67V21.6c0-.902-.608-1.507-1.51-1.507h-6.07c-.904 0-1.509.605-1.509 1.506v6.071c0 .902.605 1.508 1.508 1.508h6.07c.903 0 1.51-.606 1.51-1.508zM25.39 68.58h45.473c.903 0 1.51-.607 1.51-1.506V41.303H66.01c.31.916.31 2.133.31 3.031 0 10.011-8.188 18.195-18.192 18.195-10.006 0-18.19-8.184-18.19-18.195 0-.898 0-2.115.31-3.031h-6.366v25.771c0 .899.606 1.507 1.51 1.507zm22.737-36.369c-6.677 0-12.123 5.448-12.124 12.123 0 6.676 5.447 12.124 12.124 12.124 6.678 0 12.123-5.448 12.123-12.124 0-6.675-5.445-12.123-12.123-12.123zm24.247-18.19H23.88a6.078 6.078 0 0 0-6.07 6.072V68.58a6.079 6.079 0 0 0 6.07 6.07h48.493c3.344 0 6.067-2.724 6.067-6.07V20.093a6.078 6.078 0 0 0-6.067-6.071zM9.854.002H86.4l6.063 6.061v34.486h.002l3.788 3.79-3.788 3.79-.002-.002V82.61l-6.063 6.064H9.854L3.79 82.61V48.127L0 44.337l3.79-3.789V6.062L9.854.001z" mask="url(#b)"/>
    </g>
</svg>
