<svg xmlns="http://www.w3.org/2000/svg" xmlns:xlink="http://www.w3.org/1999/xlink" width="97" height="89" viewBox="0 0 97 89">
    <defs>
        <path id="a" d="M0 0h96.254v88.674H0z"/>
    </defs>
    <g fill="none" fill-rule="evenodd" opacity=".2" transform="translate(.684)">
        <mask id="b" fill="#fff">
            <use xlink:href="#a"/>
        </mask>
        <path fill="#FEFEFE" d="M78.441 24.128c0-5.31-4.792-10.106-10.103-10.106H27.917c-5.31 0-10.104 4.796-10.104 10.106v40.42c0 5.308 4.794 10.104 10.105 10.104h20.208V51.748h-7.41V41.643h7.41v-3.938c0-6.79 5.1-12.905 11.37-12.905h8.168v10.106h-8.168c-.896 0-1.938 1.086-1.938 2.71v4.027h10.106v10.105H57.558v22.904h10.78c5.311 0 10.103-4.796 10.103-10.105v-40.42zM9.854 0H86.4l6.063 6.063v34.486l.002-.002 3.788 3.79-3.788 3.79h-.002V82.61l-6.063 6.064H9.854L3.79 82.61V48.128L0 44.337l3.79-3.79V6.063L9.854 0z" mask="url(#b)"/>
    </g>
</svg>
