<svg xmlns="http://www.w3.org/2000/svg" xmlns:xlink="http://www.w3.org/1999/xlink" width="97" height="89" viewBox="0 0 97 89">
    <defs>
        <path id="a" d="M0 0h96.254v88.674H0z"/>
    </defs>
    <g fill="none" fill-rule="evenodd" opacity=".2">
        <mask id="b" fill="#fff">
            <use xlink:href="#a"/>
        </mask>
        <path fill="#FEFEFE" d="M35.113 37.76h3.694l.005-12.773 4.364-10.944h-4.04l-2.32 8.129-2.355-8.15h-3.998l4.643 10.97.007 12.767zm10.836-4.479c0 .945.706 1.715 1.56 1.715.856 0 1.554-.77 1.554-1.715v-8.865c0-.94-.698-1.712-1.556-1.712-.854 0-1.558.772-1.558 1.712v8.865zm-3.065-6.615h-.001v4.41c0 1.46.07 2.556.218 3.282.146.73.391 1.357.735 1.868.343.513.823.9 1.445 1.156.619.256 1.372.38 2.264.38.8 0 1.505-.146 2.126-.446.61-.297 1.114-.763 1.507-1.387a5.394 5.394 0 0 0 .77-2.022c.12-.72.183-1.857.183-3.401v-4.213c0-1.222-.065-2.127-.198-2.728a5.366 5.366 0 0 0-.723-1.734c-.347-.56-.853-1.015-1.503-1.366-.65-.349-1.424-.527-2.33-.527-1.078 0-1.965.274-2.656.82-.694.545-1.172 1.264-1.439 2.162-.265.9-.398 2.148-.398 3.746zm11.868 9.407c.18.44.46.799.844 1.067.378.264.86.398 1.437.398.507 0 .954-.136 1.345-.418.39-.281.719-.701.986-1.26l-.067 1.377h3.918V20.583h-3.082v12.964c0 .7-.58 1.275-1.286 1.275a1.286 1.286 0 0 1-1.282-1.275V20.583h-3.218v11.233c0 1.432.026 2.386.07 2.87.044.48.151.94.335 1.387zm13.512 27.1l-2.635.014c-.002.104-.005.225-.006.356v1.472c0 .785-.65 1.426-1.44 1.426h-.517a1.44 1.44 0 0 1-1.44-1.43V61.149h6.032v-2.272c0-1.66-.041-3.319-.179-4.266-.43-3.002-4.643-3.477-6.77-1.942a3.98 3.98 0 0 0-1.475 1.984c-.3.864-.448 2.044-.448 3.54v4.995c0 8.295 10.08 7.124 8.878-.015zm-10.996 1.11l-.007-8.372c-.002-3.191-2.388-5.102-5.628-2.522l.014-6.224-3.511.006-.02 21.484 2.889-.043.262-1.34c3.688 3.386 6.006 1.068 6.001-2.99zM46.031 52.763h-3.516v10.058c0 1.456.09 2.184-.003 2.44-.286.78-1.571 1.608-2.072.085-.084-.266-.01-1.072-.011-2.456l-.016-10.127h-3.49l.01 9.968c.002 1.528-.035 2.667.011 3.186.087.913.055 1.98.903 2.59 1.58 1.137 4.61-.172 5.369-1.799l-.007 2.077 2.822.003V52.764zM33.398 68.795l-.003-18.835h4.214v-2.792l-11.233-.017v2.744l3.507.01v18.89h3.515zm39.991-19.824c0-4.288-3.72-7.8-8.265-7.8H31.132c-4.549 0-8.267 3.512-8.267 7.8v17.882c0 4.29 3.718 7.798 8.267 7.798h33.992c4.545 0 8.265-3.508 8.265-7.798V48.97zM53.122 54.23c-.845 0-1.535.567-1.535 1.26v9.403c0 .691.69 1.257 1.532 1.257.848 0 1.541-.566 1.541-1.257v-9.403c0-.694-.693-1.26-1.538-1.26zm12.48 4.142l.038-1.933a1.57 1.57 0 0 0-1.57-1.561h-.213c-.862 0-1.568.7-1.568 1.561l-.014 1.933h3.327zM9.854 0H86.4l6.063 6.062V40.55l.002-.001 3.79 3.79-3.79 3.789-.002-.002V82.61L86.4 88.674H9.854L3.79 82.609V48.127L0 44.337l3.79-3.79V6.064L9.853 0z" mask="url(#b)"/>
    </g>
</svg>
