<?xml version="1.0" encoding="UTF-8"?>
<svg width="400px" height="78px" viewBox="0 0 400 78" version="1.1" xmlns="http://www.w3.org/2000/svg" xmlns:xlink="http://www.w3.org/1999/xlink">
    <!-- Generator: Sketch 49.3 (51167) - http://www.bohemiancoding.com/sketch -->
    <title>h-bgframe-400</title>
    <desc>Created with Sketch.</desc>
    <defs>
        <linearGradient x1="50%" y1="0%" x2="50%" y2="100%" id="linearGradient-1">
            <stop stop-color="#0A3F74" offset="0%"></stop>
            <stop stop-color="#0C1D2E" offset="100%"></stop>
        </linearGradient>
        <path d="M145,0.046 L140.003,5.042 L0.202,5.042 L0.202,6.041 L289.798,6.041 L289.798,5.042 L149.997,5.042 L145,0.046 Z M0.202,72.004 L0.202,73.004 L140.003,73.004 L145,78 L149.997,73.004 L289.798,73.004 L289.798,72.004 L0.202,72.004 Z" id="path-2"></path>
        <linearGradient x1="100%" y1="50%" x2="0%" y2="50%" id="linearGradient-4">
            <stop stop-color="#FFFFFF" stop-opacity="0" offset="0%"></stop>
            <stop stop-color="#FFFFFF" offset="52.3189126%"></stop>
            <stop stop-color="#FFFFFF" stop-opacity="0" offset="100%"></stop>
        </linearGradient>
    </defs>
    <g id="Desktop-HD" stroke="none" stroke-width="1" fill="none" fill-rule="evenodd">
        <g id="01-Home-Desktop-HD" transform="translate(-520.000000, -1429.000000)">
            <g id="content" transform="translate(0.000000, 248.000000)">
                <g id="druzyny-youtuberow" transform="translate(0.000000, 591.000000)">
                    <g id="title" transform="translate(0.000000, 589.000000)">
                        <g id="h-bgframe-400" transform="translate(520.000000, 0.000000)">
                            <polygon id="Fill-1" fill="#FBC052" points="22.1283 9.9981 14.1323 17.9931 14.1323 25.8461 0.0003 39.9781 14.1323 54.1101 14.1323 61.9621 22.1283 69.9551 377.8753 69.9551 385.8683 61.9621 385.8683 54.1101 399.9993 39.9781 399.9993 39.9761 385.8683 25.8461 385.8683 17.9931 377.8753 9.9981"></polygon>
                            <polygon id="Fill-2" fill="url(#linearGradient-1)" points="384.8693 18.4056 377.4623 10.9966 22.5403 10.9966 15.1303 18.4056 15.1303 26.2596 15.1303 35.9796 19.1283 39.9766 15.1303 43.9756 15.1303 53.6966 15.1303 61.5496 22.5403 68.9576 377.4623 68.9576 384.8693 61.5496 384.8693 53.6966 384.8693 43.9756 380.8713 39.9766 384.8693 35.9796 384.8693 26.2596"></polygon>
                            <g id="Group-5" transform="translate(55.000000, 0.954300)">
                                <mask id="mask-3" fill="white">
                                    <use xlink:href="#path-2"></use>
                                </mask>
                                <g id="Clip-4"></g>
                                <path d="M145,0.046 L140.003,5.042 L0.202,5.042 L0.202,6.041 L289.798,6.041 L289.798,5.042 L149.997,5.042 L145,0.046 Z M0.202,72.004 L0.202,73.004 L140.003,73.004 L145,78 L149.997,73.004 L289.798,73.004 L289.798,72.004 L0.202,72.004 Z" id="Fill-3" fill="url(#linearGradient-4)" mask="url(#mask-3)"></path>
                            </g>
                        </g>
                    </g>
                </g>
            </g>
        </g>
    </g>
</svg>